<svg xmlns="http://www.w3.org/2000/svg"
    width="160"
    height="400"
    viewBox="0 0 160 400">
    <path
        d="M75.156,314.94C110.875,314.94 144.281,288.737 144.281,242.268C144.281,195.815 115.766,175.081 80.625,175.081C67.953,175.081 58.453,178.237 49.234,183.424L54.422,122.409L134.203,122.409L134.203,99.94L31.391,99.94L24.766,198.706L38.875,207.362C50.969,199.284 59.891,194.94 74,194.94C100.5,194.94 117.781,212.846 117.781,243.143C117.781,274.018 97.625,293.065 72.859,293.065C48.375,293.065 33.109,281.799 21.016,269.69L8.063,287.003C22.172,301.128 42.328,314.94 75.156,314.94Z"
        fill="#ffffff" />
</svg>