<svg xmlns="http://www.w3.org/2000/svg"
    width="160"
    height="400"
    viewBox="0 0 160 400">
    <path
        d="M76.016,314.94C113.469,314.94 143.703,292.487 143.703,254.549C143.703,225.581 123.828,206.503 98.781,200.737L98.781,199.581C121.234,191.237 136.5,174.315 136.5,148.799C136.5,114.956 110.578,95.94 75.156,95.94C50.672,95.94 31.953,106.596 16.125,121.268L30.234,137.909C42.047,126.143 57.016,117.549 74,116.971C95.891,117.549 109.719,130.456 109.719,150.799C109.719,173.456 94.75,190.94 51.25,190.94L51.25,211.112C99.922,211.112 116.922,228.19 116.922,253.674C116.922,278.003 99.063,293.065 74,293.065C50.109,293.065 33.969,281.768 21.594,268.737L8.344,286.112C22.172,301.128 42.906,314.94 76.016,314.94Z"
        fill="#ffffff" />
</svg>