<svg xmlns="http://www.w3.org/2000/svg"
    width="160"
    height="400"
    viewBox="0 0 160 400">
    <path
        d="M86.672,294.503C60.188,294.503 44.344,270.534 41.172,226.659C55,207.034 71.125,199.534 84.375,199.534C110,199.534 122.391,217.721 122.391,246.299C122.391,275.159 106.844,294.503 86.672,294.503ZM143.406,117.549C131.891,105.159 116.047,95.94 94.172,95.94C53.266,95.94 16.125,127.612 16.125,210.206C16.125,280.065 46.078,314.94 86.672,314.94C119.516,314.94 147.156,287.284 147.156,246.299C147.156,202.128 124.406,179.94 88.688,179.94C71.984,179.94 53.563,189.737 40.594,205.596C41.75,139.971 66.234,117.831 95.031,117.831C107.984,117.831 120.656,123.878 129.016,133.94L143.406,117.549Z"
        fill="#ffffff" />
</svg>