<svg xmlns="http://www.w3.org/2000/svg"
    width="160"
    height="400"
    viewBox="0 0 160 400">
    <path
        d="M80.344,314.94C120.078,314.94 146.578,291.049 146.578,260.237C146.578,231.44 129.297,215.596 110.875,204.94L110.875,203.503C123.547,193.706 139.094,174.706 139.094,152.534C139.094,119.987 117.203,96.94 81.203,96.94C48.094,96.94 23.313,118.253 23.313,150.518C23.313,172.69 36.281,188.518 51.828,199.174L51.828,200.612C32.531,210.987 12.953,230.565 12.953,258.784C12.953,291.331 41.469,314.94 80.344,314.94ZM94.75,196.581C69.969,186.799 47.219,175.846 47.219,150.518C47.219,130.065 61.328,116.237 80.625,116.237C103.375,116.237 116.625,133.237 116.625,153.971C116.625,169.518 109.141,183.909 94.75,196.581ZM80.922,295.362C55.578,295.362 36.859,278.956 36.859,256.487C36.859,236.331 48.656,219.628 65.656,208.69C95.609,220.784 121.531,231.44 121.531,259.659C121.531,280.674 105.109,295.362 80.922,295.362Z"
        fill="#ffffff" />
</svg>