<svg xmlns="http://www.w3.org/2000/svg"
    width="160"
    height="400"
    viewBox="0 0 160 400">
    <path
        d="M75.156,211.362C50.109,211.362 37.438,192.94 37.438,164.456C37.438,135.674 52.984,116.69 73.141,116.69C100.219,116.69 116.344,139.706 119.219,183.159C105.109,203.299 89.266,211.362 75.156,211.362ZM16.703,293.346C28.5,305.737 44.625,314.94 67.391,314.94C107.125,314.94 143.984,282.081 143.984,196.393C143.984,129.346 113.75,95.94 73.141,95.94C40.313,95.94 12.656,123.596 12.656,164.456C12.656,208.206 35.703,230.94 70.844,230.94C88.688,230.94 106.844,220.581 119.516,204.753C117.5,270.534 93.875,293.065 66.516,293.065C52.984,293.065 40.016,286.987 31.094,276.878L16.703,293.346Z"
        fill="#ffffff" />
</svg>